REM DIRINDEX 1\2,1\3,1\4,1\5
REM DIRNAME cjc005,folder01,folder02,folder03,folder04
TITLE ""
FILE "P1Q_t_0172-0181.mp3" MP3
  TRACK 01 AUDIO
    TITLE "3:cjc005_1417"
    INDEX 01 00:00:00
  TRACK 02 AUDIO
    TITLE "0:"
    INDEX 01 00:01:24
  TRACK 03 AUDIO
    TITLE "4:cjc005_1418"
    INDEX 01 00:01:48
  TRACK 04 AUDIO
    TITLE "0:"
    INDEX 01 00:03:12
  TRACK 05 AUDIO
    TITLE "5:cjc005_1419"
    INDEX 01 00:03:35
  TRACK 06 AUDIO
    TITLE "0:"
    INDEX 01 00:08:64
  TRACK 07 AUDIO
    TITLE "3:cjc005_1420"
    INDEX 01 00:09:42
  TRACK 08 AUDIO
    TITLE "0:"
    INDEX 01 00:10:27
  TRACK 09 AUDIO
    TITLE "4:cjc005_1421"
    INDEX 01 00:10:53
  TRACK 10 AUDIO
    TITLE "0:"
    INDEX 01 00:11:64
  TRACK 11 AUDIO
    TITLE "5:cjc005_1422"
    INDEX 01 00:12:14
  TRACK 12 AUDIO
    TITLE "0:"
    INDEX 01 00:15:54
  TRACK 13 AUDIO
    TITLE "3:cjc005_1423"
    INDEX 01 00:16:28
  TRACK 14 AUDIO
    TITLE "0:"
    INDEX 01 00:17:37
  TRACK 15 AUDIO
    TITLE "4:cjc005_1424"
    INDEX 01 00:17:70
  TRACK 16 AUDIO
    TITLE "0:"
    INDEX 01 00:19:09
  TRACK 17 AUDIO
    TITLE "5:cjc005_1425"
    INDEX 01 00:19:32
  TRACK 18 AUDIO
    TITLE "0:"
    INDEX 01 00:23:28
  TRACK 19 AUDIO
    TITLE "3:cjc005_1426"
    INDEX 01 00:24:08
  TRACK 20 AUDIO
    TITLE "0:"
    INDEX 01 00:25:27
  TRACK 21 AUDIO
    TITLE "4:cjc005_1427"
    INDEX 01 00:25:46
  TRACK 22 AUDIO
    TITLE "0:"
    INDEX 01 00:26:66
  TRACK 23 AUDIO
    TITLE "5:cjc005_1428"
    INDEX 01 00:27:14
  TRACK 24 AUDIO
    TITLE "0:"
    INDEX 01 00:31:43
  TRACK 25 AUDIO
    TITLE "3:cjc005_1429"
    INDEX 01 00:32:19
  TRACK 26 AUDIO
    TITLE "0:"
    INDEX 01 00:33:42
  TRACK 27 AUDIO
    TITLE "4:cjc005_1430"
    INDEX 01 00:33:66
  TRACK 28 AUDIO
    TITLE "0:"
    INDEX 01 00:34:73
  TRACK 29 AUDIO
    TITLE "5:cjc005_1431"
    INDEX 01 00:35:21
  TRACK 30 AUDIO
    TITLE "0:"
    INDEX 01 00:39:00
  TRACK 31 AUDIO
    TITLE "3:cjc005_1432"
    INDEX 01 00:39:52
  TRACK 32 AUDIO
    TITLE "0:"
    INDEX 01 00:40:70
  TRACK 33 AUDIO
    TITLE "4:cjc005_1433"
    INDEX 01 00:41:20
  TRACK 34 AUDIO
    TITLE "0:"
    INDEX 01 00:42:37
  TRACK 35 AUDIO
    TITLE "5:cjc005_1434"
    INDEX 01 00:42:59
  TRACK 36 AUDIO
    TITLE "0:"
    INDEX 01 00:46:58
  TRACK 37 AUDIO
    TITLE "3:cjc005_1435"
    INDEX 01 00:47:30
  TRACK 38 AUDIO
    TITLE "0:"
    INDEX 01 00:48:63
  TRACK 39 AUDIO
    TITLE "4:cjc005_1436"
    INDEX 01 00:49:20
  TRACK 40 AUDIO
    TITLE "0:"
    INDEX 01 00:51:42
  TRACK 41 AUDIO
    TITLE "5:cjc005_1437"
    INDEX 01 00:51:67
  TRACK 42 AUDIO
    TITLE "0:"
    INDEX 01 00:56:49
  TRACK 43 AUDIO
    TITLE "3:cjc005_1438"
    INDEX 01 00:57:29
  TRACK 44 AUDIO
    TITLE "0:"
    INDEX 01 00:58:54
  TRACK 45 AUDIO
    TITLE "4:cjc005_1439"
    INDEX 01 00:59:00
  TRACK 46 AUDIO
    TITLE "0:"
    INDEX 01 01:00:10
  TRACK 47 AUDIO
    TITLE "5:cjc005_1440"
    INDEX 01 01:00:29
  TRACK 48 AUDIO
    TITLE "0:"
    INDEX 01 01:05:22
  TRACK 49 AUDIO
    TITLE "3:cjc005_1441"
    INDEX 01 01:06:00
  TRACK 50 AUDIO
    TITLE "0:"
    INDEX 01 01:07:10
  TRACK 51 AUDIO
    TITLE "4:cjc005_1442"
    INDEX 01 01:07:37
  TRACK 52 AUDIO
    TITLE "0:"
    INDEX 01 01:08:33
  TRACK 53 AUDIO
    TITLE "5:cjc005_1443"
    INDEX 01 01:08:52
  TRACK 54 AUDIO
    TITLE "0:"
    INDEX 01 01:13:12
  TRACK 55 AUDIO
    TITLE "3:cjc005_1444"
    INDEX 01 01:13:61
  TRACK 56 AUDIO
    TITLE "0:"
    INDEX 01 01:15:27
  TRACK 57 AUDIO
    TITLE "4:cjc005_1445"
    INDEX 01 01:15:46
  TRACK 58 AUDIO
    TITLE "0:"
    INDEX 01 01:16:61
  TRACK 59 AUDIO
    TITLE "5:cjc005_1446"
    INDEX 01 01:17:08
  TRACK 60 AUDIO
    TITLE "0:"
    INDEX 01 01:21:00
